<?xml version="1.0" encoding="UTF-8" standalone="no"?>
<svg
   xmlns:dc="http://purl.org/dc/elements/1.1/"
   xmlns:cc="http://creativecommons.org/ns#"
   xmlns:rdf="http://www.w3.org/1999/02/22-rdf-syntax-ns#"
   xmlns:svg="http://www.w3.org/2000/svg"
   xmlns="http://www.w3.org/2000/svg"
   xmlns:sodipodi="http://sodipodi.sourceforge.net/DTD/sodipodi-0.dtd"
   xmlns:inkscape="http://www.inkscape.org/namespaces/inkscape"
   version="1.1"
   width="16"
   height="16"
   viewBox="0 0 16 16"
   overflow="visible"
   enable-background="new 0 0 128 128"
   xml:space="preserve"
   id="svg2"
   inkscape:version="0.91 r13725"
   sodipodi:docname="go-next.svg"
   style="overflow:visible"><metadata
     id="metadata40"><rdf:RDF><cc:Work
         rdf:about=""><dc:format>image/svg+xml</dc:format><dc:type
           rdf:resource="http://purl.org/dc/dcmitype/StillImage" /><dc:title></dc:title></cc:Work></rdf:RDF></metadata><defs
     id="defs38" /><sodipodi:namedview
     pagecolor="#ffffff"
     bordercolor="#666666"
     borderopacity="1"
     objecttolerance="10"
     gridtolerance="10"
     guidetolerance="10"
     inkscape:pageopacity="0"
     inkscape:pageshadow="2"
     inkscape:window-width="1428"
     inkscape:window-height="843"
     id="namedview36"
     showgrid="false"
     fit-margin-top="0"
     fit-margin-left="0"
     fit-margin-right="0"
     fit-margin-bottom="0"
     inkscape:zoom="20.85965"
     inkscape:cx="9.587365"
     inkscape:cy="8.9906929"
     inkscape:window-x="0"
     inkscape:window-y="0"
     inkscape:window-maximized="1"
     inkscape:current-layer="svg2" /><path
     d="M 15.916428,8.2889661 9.487799,14.717596 c -0.082,0.0821 -0.204288,0.10643 -0.311431,0.062 -0.107001,-0.0443 -0.176288,-0.14786 -0.176288,-0.264 0,0 0,-3.30718 0,-3.57147 -0.276574,0 -8.7143632,0 -8.7143632,0 C 0.128144,10.944126 0,10.815986 0,10.658416 L 0,5.5297961 c 0,-0.15757 0.128144,-0.28572 0.2857168,-0.28572 0,0 8.4377892,0 8.7143632,0 0,-0.26428 0,-3.585743 0,-3.585743 0,-0.116143 0.06929,-0.219716 0.176573,-0.264002 2.86e-4,-1.43e-4 0.109144,-0.02171 0.109144,-0.02171 0.07643,0 0.148144,0.02971 0.202002,0.08371 l 6.428629,6.428625 c 0.111429,0.11143 0.111429,0.29272 0,0.40401 z"
     id="path4"
     inkscape:connector-curvature="0"
     style="opacity:0.2" /><path
     d="M 15.815427,8.1879661 9.386798,14.616596 c -0.04071,0.0408 -0.102287,0.0531 -0.155716,0.031 -0.05329,-0.022 -0.08814,-0.0741 -0.08814,-0.132 0,0 0,-3.44946 0,-3.71432 -0.276717,0 -8.8572222,0 -8.8572222,0 -0.078858,0 -0.1428584,-0.0639 -0.1428584,-0.14286 l 0,-5.1286199 c 0,-0.079 0.064001,-0.14286 0.1428584,-0.14286 0,0 8.5805052,0 8.8572222,0 0,-0.26486 0,-3.728603 0,-3.728603 0,-0.05771 0.03486,-0.110001 0.08814,-0.132001 0.01786,-0.0071 0.03629,-0.01086 0.05471,-0.01086 0.03729,0 0.07371,0.01457 0.101001,0.04186 l 6.428629,6.428634 c 0.05571,0.0558 0.05571,0.14628 0,0.202 z"
     id="path6"
     inkscape:connector-curvature="0"
     style="opacity:0.2" /><linearGradient
     id="XMLID_5_"
     gradientUnits="userSpaceOnUse"
     x1="1065.3569"
     y1="1136.7646"
     x2="1052.8583"
     y2="1028.2761"
     gradientTransform="matrix(0,-0.14285842,-0.14285842,0,162.55858,159.08829)"><stop
       offset="0"
       style="stop-color:#D15F00"
       id="stop9" /><stop
       offset="1"
       style="stop-color:#D96E00"
       id="stop11" /></linearGradient><path
     d="M 15.815427,8.0451061 9.386798,14.473736 c -0.04071,0.0409 -0.102287,0.0531 -0.155716,0.031 -0.05329,-0.022 -0.08814,-0.0741 -0.08814,-0.132 0,0 0,-3.44946 0,-3.71432 -0.276717,0 -8.8572222,0 -8.8572222,0 -0.078858,0 -0.1428584,-0.0639 -0.1428584,-0.14286 l 0,-5.1286199 c 0,-0.079 0.064001,-0.14286 0.1428584,-0.14286 0,0 8.5805052,0 8.8572222,0 0,-0.26486 0,-3.728601 0,-3.728601 0,-0.05772 0.03486,-0.110001 0.08814,-0.132001 0.01786,-0.0071 0.03629,-0.01086 0.05471,-0.01086 0.03729,0 0.07371,0.01457 0.101001,0.04186 l 6.428629,6.428632 c 0.05571,0.0558 0.05571,0.14628 0,0.202 z"
     id="path13"
     style="fill:url(#XMLID_5_)"
     inkscape:connector-curvature="0" /><linearGradient
     id="XMLID_6_"
     gradientUnits="userSpaceOnUse"
     x1="1067.9399"
     y1="1081.5674"
     x2="1034.4403"
     y2="1092.8173"
     gradientTransform="matrix(0,-1,-1,0,1146.8999,1120.8999)"><stop
       offset="0"
       style="stop-color:#ED7C00"
       id="stop16" /><stop
       offset="1"
       style="stop-color:#F89000"
       id="stop18" /></linearGradient><polygon
     points="74,107.9 74,80.9 11,80.9 11,45 74,45 74,17.9 119,62.9 "
     id="polygon20"
     style="fill:url(#XMLID_6_)"
     transform="matrix(0.14285842,0,0,0.14285842,-1.2857258,-1.0416908)" /><linearGradient
     id="XMLID_7_"
     gradientUnits="userSpaceOnUse"
     x1="1178.5454"
     y1="37.433601"
     x2="1196.5457"
     y2="93.101196"
     gradientTransform="matrix(-0.14285842,0,0,0.14285842,175.00142,-1.0416908)"><stop
       offset="0"
       style="stop-color:#ED7C00"
       id="stop23" /><stop
       offset="1"
       style="stop-color:#FFA000"
       id="stop25" /></linearGradient><path
     d="m 9.285797,5.2440761 0.142859,0 0,-3.585743 -0.142859,-0.142858 0,3.728601 z m -9.0000802,0.14286 0,5.1286199 9.0000802,0 0,3.85718 0.142859,-0.14286 0,-3.85718 -9.0000807,0 0,-4.9857599 -0.1428585,0 z"
     id="path27"
     style="fill:url(#XMLID_7_)"
     inkscape:connector-curvature="0" /><linearGradient
     id="XMLID_8_"
     gradientUnits="userSpaceOnUse"
     x1="1088.7104"
     y1="1100.7979"
     x2="1052.4604"
     y2="1083.5479"
     gradientTransform="matrix(0,-0.14285842,-0.14285842,0,162.55858,159.08829)"><stop
       offset="0"
       style="stop-color:#FABD8C"
       id="stop30" /><stop
       offset="1"
       style="stop-color:#F8A039"
       id="stop32" /></linearGradient><path
     d="m 8.358503,8.6802561 c 3.427317,-0.72187 7.355923,-0.73615 7.355923,-0.73615 l -6.428629,-6.428631 0,3.871461 -9.0000802,0 0,5.1286199 1.5238712,0 c 0,0 3.121599,-1.1135801 6.548915,-1.8352999 z"
     id="path34"
     style="fill:url(#XMLID_8_)"
     inkscape:connector-curvature="0" /></svg>