<?xml version="1.0" encoding="UTF-8" standalone="no"?>
<svg
   xmlns:dc="http://purl.org/dc/elements/1.1/"
   xmlns:cc="http://creativecommons.org/ns#"
   xmlns:rdf="http://www.w3.org/1999/02/22-rdf-syntax-ns#"
   xmlns:svg="http://www.w3.org/2000/svg"
   xmlns="http://www.w3.org/2000/svg"
   xmlns:sodipodi="http://sodipodi.sourceforge.net/DTD/sodipodi-0.dtd"
   xmlns:inkscape="http://www.inkscape.org/namespaces/inkscape"
   version="1.1"
   width="16"
   height="16"
   viewBox="0 0 16 16"
   overflow="visible"
   enable-background="new 0 0 128 128"
   xml:space="preserve"
   id="svg2"
   inkscape:version="0.91 r13725"
   sodipodi:docname="go-previous.svg"
   style="overflow:visible"><metadata
     id="metadata40"><rdf:RDF><cc:Work
         rdf:about=""><dc:format>image/svg+xml</dc:format><dc:type
           rdf:resource="http://purl.org/dc/dcmitype/StillImage" /><dc:title></dc:title></cc:Work></rdf:RDF></metadata><defs
     id="defs38" /><sodipodi:namedview
     pagecolor="#ffffff"
     bordercolor="#666666"
     borderopacity="1"
     objecttolerance="10"
     gridtolerance="10"
     guidetolerance="10"
     inkscape:pageopacity="0"
     inkscape:pageshadow="2"
     inkscape:window-width="1428"
     inkscape:window-height="843"
     id="namedview36"
     showgrid="false"
     fit-margin-top="0"
     fit-margin-left="0"
     fit-margin-right="0"
     fit-margin-bottom="0"
     inkscape:zoom="20.85965"
     inkscape:cx="8.2200822"
     inkscape:cy="6.0915465"
     inkscape:window-x="0"
     inkscape:window-y="0"
     inkscape:window-maximized="1"
     inkscape:current-layer="svg2" /><path
     d="M 0.13149387,8.2065345 6.5601294,14.635175 c 0.082,0.0821 0.204288,0.10643 0.311432,0.062 0.107001,-0.0443 0.176288,-0.14786 0.176288,-0.26401 0,0 0,-3.30717 0,-3.57146 0.276574,0 8.7143726,0 8.7143726,0 0.157573,0 0.285717,-0.12814 0.285717,-0.28572 l 0,-5.1286205 c 0,-0.15757 -0.128144,-0.28572 -0.285717,-0.28572 0,0 -8.4377986,0 -8.7143726,0 0,-0.26429 0,-3.585747 0,-3.585747 0,-0.116144 -0.06929,-0.219717 -0.176574,-0.264003 -2.85e-4,-1.43e-4 -0.109001,-0.02171 -0.109001,-0.02171 -0.07643,0 -0.148144,0.02971 -0.202002,0.08371 l -6.42863573,6.42864 c -0.1115725,0.11143 -0.1115725,0.29271 -1.428e-4,0.404 z"
     id="path4"
     inkscape:connector-curvature="0"
     style="opacity:0.2" /><path
     d="M 0.23249487,8.1055345 6.6611304,14.534175 c 0.04072,0.0408 0.102287,0.0531 0.155716,0.031 0.05329,-0.022 0.08829,-0.0741 0.08829,-0.13201 0,0 0,-3.44946 0,-3.71432 0.276717,0 8.8572316,0 8.8572316,0 0.07886,0 0.142858,-0.0639 0.142858,-0.14286 l 0,-5.1286205 c 0,-0.079 -0.064,-0.14286 -0.142858,-0.14286 0,0 -8.5805146,0 -8.8572316,0 0,-0.26486 0,-3.728607 0,-3.728607 0,-0.05772 -0.03486,-0.110001 -0.08814,-0.132002 -0.018,-0.0071 -0.03643,-0.01086 -0.05471,-0.01086 -0.03729,0 -0.07371,0.01457 -0.101001,0.04186 l -6.42863573,6.428639 c -0.055858,0.0559 -0.055858,0.14628 -1.428e-4,0.202 z"
     id="path6"
     inkscape:connector-curvature="0"
     style="opacity:0.2" /><linearGradient
     id="XMLID_5_"
     gradientUnits="userSpaceOnUse"
     x1="1065.3579"
     y1="32.765598"
     x2="1052.8593"
     y2="-75.723"
     gradientTransform="matrix(0,-0.14285858,0.14285858,0,11.205047,159.00604)"><stop
       offset="0"
       style="stop-color:#D15F00"
       id="stop9" /><stop
       offset="1"
       style="stop-color:#D96E00"
       id="stop11" /></linearGradient><path
     d="M 0.23249487,7.9626745 6.6611304,14.391315 c 0.04072,0.0408 0.102287,0.0531 0.155716,0.031 0.05329,-0.022 0.08829,-0.0741 0.08829,-0.132 0,0 0,-3.44947 0,-3.71433 0.276717,0 8.8572316,0 8.8572316,0 0.07886,0 0.142858,-0.0639 0.142858,-0.14286 l 0,-5.1286205 c 0,-0.079 -0.064,-0.14286 -0.142858,-0.14286 0,0 -8.5805146,0 -8.8572316,0 0,-0.26486 0,-3.728606 0,-3.728606 0,-0.05772 -0.03486,-0.110001 -0.08814,-0.132001 -0.018,-0.0071 -0.03643,-0.01086 -0.05471,-0.01086 -0.03729,0 -0.07371,0.01457 -0.101001,0.04186 l -6.42863573,6.428637 c -0.055858,0.0559 -0.055858,0.14629 -1.428e-4,0.202 z"
     id="path13"
     style="fill:url(#XMLID_5_)"
     inkscape:connector-curvature="0" /><linearGradient
     id="XMLID_6_"
     gradientUnits="userSpaceOnUse"
     x1="1067.9419"
     y1="-22.431601"
     x2="1034.4423"
     y2="-11.1818"
     gradientTransform="matrix(0,-1,1,0,87.0991,1120.8999)"><stop
       offset="0"
       style="stop-color:#ED7C00"
       id="stop16" /><stop
       offset="1"
       style="stop-color:#F89000"
       id="stop18" /></linearGradient><polygon
     points="56,80.9 119,80.9 119,45 56,45 56,17.9 11,62.9 56,107.9 "
     id="polygon20"
     style="fill:url(#XMLID_6_)"
     transform="matrix(0.14285858,0,0,0.14285858,-1.2378057,-1.1241295)" /><linearGradient
     id="XMLID_7_"
     gradientUnits="userSpaceOnUse"
     x1="74.545403"
     y1="37.433102"
     x2="92.545601"
     y2="93.1007"
     gradientTransform="matrix(0.14285858,0,0,0.14285858,-1.2378057,-1.1241295)"><stop
       offset="0"
       style="stop-color:#ED7C00"
       id="stop23" /><stop
       offset="1"
       style="stop-color:#FFA000"
       id="stop25" /></linearGradient><path
     d="m 6.7622744,1.4330385 -0.142858,0.142859 0,3.585747 0.142858,0 0,-3.728606 z m 8.8572316,3.871466 0,4.9857705 -9.0000896,0 0,3.85718 0.142858,0.14286 0,-3.85719 9.0000906,0 0,-5.1286205 -0.142859,0 z"
     id="path27"
     style="fill:url(#XMLID_7_)"
     inkscape:connector-curvature="0" /><linearGradient
     id="XMLID_8_"
     gradientUnits="userSpaceOnUse"
     x1="1092.3228"
     y1="-53.999001"
     x2="1053.8229"
     y2="-7.8332"
     gradientTransform="matrix(0,-0.14285858,0.14285858,0,11.205047,159.00604)"><stop
       offset="0"
       style="stop-color:#FABD8C"
       id="stop30" /><stop
       offset="1"
       style="stop-color:#F8A039"
       id="stop32" /></linearGradient><path
     d="m 7.7461414,8.2143945 c 3.2066036,-0.67187 8.0162236,-0.76715 8.0162236,-0.76715 l 0,-2.14274 -9.0000906,0 0,-3.871466 -6.42863573,6.428636 2.11516373,2.1150201 c -1.43e-4,0 2.090878,-1.09044 5.297339,-1.7623001 z"
     id="path34"
     style="fill:url(#XMLID_8_)"
     inkscape:connector-curvature="0" /></svg>