<?xml version="1.0" encoding="UTF-8" standalone="no"?>
<!-- Created with Inkscape (http://www.inkscape.org/) -->

<svg
   xmlns:dc="http://purl.org/dc/elements/1.1/"
   xmlns:cc="http://creativecommons.org/ns#"
   xmlns:rdf="http://www.w3.org/1999/02/22-rdf-syntax-ns#"
   xmlns:svg="http://www.w3.org/2000/svg"
   xmlns="http://www.w3.org/2000/svg"
   xmlns:sodipodi="http://sodipodi.sourceforge.net/DTD/sodipodi-0.dtd"
   xmlns:inkscape="http://www.inkscape.org/namespaces/inkscape"
   id="svg3692"
   height="16"
   width="16"
   version="1.1"
   inkscape:version="0.91 r13725"
   sodipodi:docname="help-about.svg">
  <sodipodi:namedview
     pagecolor="#ffffff"
     bordercolor="#666666"
     borderopacity="1"
     objecttolerance="10"
     gridtolerance="10"
     guidetolerance="10"
     inkscape:pageopacity="0"
     inkscape:pageshadow="2"
     inkscape:window-width="1440"
     inkscape:window-height="846"
     id="namedview29"
     showgrid="false"
     fit-margin-top="0"
     fit-margin-left="0"
     fit-margin-right="0"
     fit-margin-bottom="0"
     inkscape:zoom="4.9166667"
     inkscape:cx="23.002414"
     inkscape:cy="56.542373"
     inkscape:window-x="0"
     inkscape:window-y="0"
     inkscape:window-maximized="1"
     inkscape:current-layer="svg3692" />
  <defs
     id="defs3694">
    <linearGradient
       id="linearGradient3619"
       y2="33.955002"
       gradientUnits="userSpaceOnUse"
       x2="15.215"
       gradientTransform="translate(2.9799,-3.1217)"
       y1="22.292"
       x1="11.566">
      <stop
         id="stop2687"
         style="stop-color:#fff;stop-opacity:.27451"
         offset="0" />
      <stop
         id="stop2689"
         style="stop-color:#fff;stop-opacity:0"
         offset="1" />
    </linearGradient>
    <linearGradient
       id="linearGradient3648"
       y2="43.444"
       gradientUnits="userSpaceOnUse"
       x2="29.646999"
       y1="2"
       x1="29.646999">
      <stop
         id="stop3644"
         style="stop-color:#fff"
         offset="0" />
      <stop
         id="stop3646"
         style="stop-color:#fff;stop-opacity:0"
         offset="1" />
    </linearGradient>
    <radialGradient
       id="radialGradient3627"
       gradientUnits="userSpaceOnUse"
       cy="25.625"
       cx="13.139"
       gradientTransform="matrix(0,2.6541,-3.1628,0,97.183,-26.676)"
       r="13.931">
      <stop
         id="stop3692"
         style="stop-color:#ffeb9f"
         offset="0" />
      <stop
         id="stop3694"
         style="stop-color:#ffd57e"
         offset=".26238" />
      <stop
         id="stop3696"
         style="stop-color:#ffbc43"
         offset=".66094" />
      <stop
         id="stop3698"
         style="stop-color:#ff921a"
         offset="1" />
    </radialGradient>
    <linearGradient
       id="linearGradient3629"
       y2="9.5799999"
       gradientUnits="userSpaceOnUse"
       x2="21.483"
       gradientTransform="matrix(1.6509,0,0,1.6568,-11.466,-15.046)"
       y1="36.255001"
       x1="21.483">
      <stop
         id="stop3605"
         style="stop-color:#a7651c"
         offset="0" />
      <stop
         id="stop3607"
         style="stop-color:#c8a700"
         offset="1" />
    </linearGradient>
    <radialGradient
       id="radialGradient3690"
       gradientUnits="userSpaceOnUse"
       cx="62.625"
       cy="4.625"
       r="10.625"
       gradientTransform="matrix(2.1647,0,0,0.84706,-111.56,35.082)">
      <stop
         id="stop8840"
         offset="0" />
      <stop
         id="stop8842"
         style="stop-opacity:0"
         offset="1" />
    </radialGradient>
  </defs>
  <metadata
     id="metadata3697">
    <rdf:RDF>
      <cc:Work
         rdf:about="">
        <dc:format>image/svg+xml</dc:format>
        <dc:type
           rdf:resource="http://purl.org/dc/dcmitype/StillImage" />
        <dc:title></dc:title>
      </cc:Work>
    </rdf:RDF>
  </metadata>
  <g
     id="layer1"
     transform="matrix(0.34042528,0,0,0.34042528,-0.33960334,-0.34041337)">
    <path
       id="path8836"
       style="opacity:0.3;fill:url(#radialGradient3690);fill-rule:evenodd"
       d="m 47,39 c 0,4.9706 -10.297,9 -23,9 -12.703,0 -23,-4.0294 -23,-9 0,-4.9706 10.297,-9 23,-9 12.703,0 23,4.0294 23,9 z"
       inkscape:connector-curvature="0" />
    <path
       id="path1307"
       style="fill:url(#radialGradient3627);stroke:url(#linearGradient3629);stroke-width:0.99226999;stroke-linejoin:round"
       d="m 24,1.4961 c 1.5188,0 6.4154,12.275 7.6441,13.171 1.2287,0.89594 14.375,1.7763 14.844,3.226 0.46933,1.4497 -9.6503,9.9167 -10.12,11.366 -0.46933,1.4497 2.7587,14.269 1.53,15.165 -1.2287,0.89594 -12.38,-6.1466 -13.898,-6.1466 -1.5188,0 -12.67,7.0426 -13.898,6.1466 -1.2291,-0.895 1.999,-13.714 1.53,-15.164 -0.47,-1.45 -10.589,-9.917 -10.12,-11.366 0.4693,-1.45 13.615,-2.331 14.844,-3.226 1.229,-0.896 6.125,-13.172 7.644,-13.172 z"
       inkscape:connector-curvature="0" />
    <path
       id="path11014"
       style="opacity:0.3;fill:none;stroke:#ffffff"
       d="m 36.458,42.855 c 0,0 -4.3184,-3.7426 -10.076,-4.8942"
       inkscape:connector-curvature="0" />
    <path
       id="path11985"
       style="opacity:0.3;fill:none;stroke:#ffffff"
       d="m 11.176,42.855 c 0,0 4.3184,-3.7426 10.076,-4.8942"
       inkscape:connector-curvature="0" />
    <path
       id="path1309"
       style="opacity:0.4;fill:none;stroke:url(#linearGradient3648);stroke-linejoin:round"
       d="m 24,2.5 c 2.2556,4.3171 4.4784,8.9524 6.734,13.27 4.844,0.78986 10.262,1.3808 14.771,2.5054 -3.4499,3.458 -6.876,7.1311 -10.326,10.589 0.73814,4.8053 1.213,9.2595 1.9512,14.065 -4.387,-2.18 -8.775,-4.36 -13.163,-6.54 -4.388,2.18 -8.775,4.36 -13.163,6.54 0.738,-4.805 1.125,-9.347 1.863,-14.153 -3.4496,-3.458 -6.7314,-7.084 -10.181,-10.542 4.8436,-0.79 9.87,-1.675 14.714,-2.464 2.256,-4.318 4.544,-8.9529 6.8,-13.27 z"
       inkscape:connector-curvature="0" />
    <path
       id="path3382"
       style="opacity:0.8;fill:url(#linearGradient3619)"
       d="m 24.024,2.0218 c 0,0 4.5023,7.4701 7.0209,13.317 4.844,0.78986 10.31,1.4047 14.915,2.7206 0,0 -2.4639,2.4686 -3.4806,3.4878 0,0 -31.782,5.7123 -31.782,5.7123 -2.8971,-2.977 -6.1849,-5.865 -8.7355,-9.212 3.553,-1.076 10.132,-1.943 14.976,-2.733 3.355,-7.9031 7.086,-13.293 7.086,-13.293 z"
       inkscape:connector-curvature="0" />
  </g>
</svg>
