<?xml version="1.0" encoding="UTF-8" standalone="no"?>
<svg
   xmlns:dc="http://purl.org/dc/elements/1.1/"
   xmlns:cc="http://creativecommons.org/ns#"
   xmlns:rdf="http://www.w3.org/1999/02/22-rdf-syntax-ns#"
   xmlns:svg="http://www.w3.org/2000/svg"
   xmlns="http://www.w3.org/2000/svg"
   xmlns:xlink="http://www.w3.org/1999/xlink"
   xmlns:sodipodi="http://sodipodi.sourceforge.net/DTD/sodipodi-0.dtd"
   xmlns:inkscape="http://www.inkscape.org/namespaces/inkscape"
   version="1.1"
   width="16"
   height="16"
   viewBox="0 0 16 16"
   overflow="visible"
   enable-background="new 0 0 128 128"
   xml:space="preserve"
   id="svg2"
   inkscape:version="0.91 r13725"
   sodipodi:docname="go-home.svg"
   style="overflow:visible"><metadata
     id="metadata118"><rdf:RDF><cc:Work
         rdf:about=""><dc:format>image/svg+xml</dc:format><dc:type
           rdf:resource="http://purl.org/dc/dcmitype/StillImage" /><dc:title></dc:title></cc:Work></rdf:RDF></metadata><defs
     id="defs116"><linearGradient
       inkscape:collect="always"
       xlink:href="#XMLID_16_"
       id="linearGradient3450"
       gradientUnits="userSpaceOnUse"
       x1="95.576202"
       y1="94.089798"
       x2="81.657097"
       y2="81.6036"
       gradientTransform="matrix(0.1360755,0,0,0.1360755,-0.89801999,-0.6244346)" /><linearGradient
       inkscape:collect="always"
       xlink:href="#XMLID_16_"
       id="linearGradient3452"
       gradientUnits="userSpaceOnUse"
       x1="95.576202"
       y1="94.089798"
       x2="81.657097"
       y2="81.6036"
       gradientTransform="matrix(0.1360755,0,0,0.1360755,-0.89801999,-0.6244346)" /></defs><sodipodi:namedview
     pagecolor="#ffffff"
     bordercolor="#666666"
     borderopacity="1"
     objecttolerance="10"
     gridtolerance="10"
     guidetolerance="10"
     inkscape:pageopacity="0"
     inkscape:pageshadow="2"
     inkscape:window-width="1428"
     inkscape:window-height="843"
     id="namedview114"
     showgrid="false"
     fit-margin-top="0"
     fit-margin-left="0"
     fit-margin-right="0"
     fit-margin-bottom="0"
     inkscape:zoom="20.85965"
     inkscape:cx="12.610691"
     inkscape:cy="10.163223"
     inkscape:window-x="0"
     inkscape:window-y="0"
     inkscape:window-maximized="1"
     inkscape:current-layer="svg2" /><path
     d="m 13.798135,6.6459354 0,8.3783096 c 0,0.30004 -0.244256,0.5443 -0.544302,0.5443 l -10.7499654,0 c -0.3001826,0 -0.544302,-0.24426 -0.544302,-0.5443 l 0,-8.3783096 11.8385694,0 z"
     id="path4"
     inkscape:connector-curvature="0"
     style="opacity:0.1" /><path
     d="m 13.798135,6.5098654 0,8.3782996 c 0,0.30005 -0.244256,0.5443 -0.544302,0.5443 l -10.7499654,0 c -0.3001826,0 -0.544302,-0.24425 -0.544302,-0.5443 l 0,-8.3782996 11.8385694,0 z"
     id="path6"
     inkscape:connector-curvature="0"
     style="opacity:0.1" /><path
     d="m 7.1100236,2.9437354 -5.0886797,3.31602 c -0.038509,0.025 -0.061778,0.068 -0.061778,0.11403 l 0,8.3783096 c 0,0.30004 0.2441194,0.5443 0.544302,0.5443 l 10.7499651,0 c 0.300046,0 0.544302,-0.24426 0.544302,-0.5443 l 0,-8.3783096 c 0,-0.0489 -0.02613,-0.0939 -0.06858,-0.11811 l -6.4777394,-3.31603 c -0.04436,-0.0253 -0.09906,-0.0237 -0.14179,0.004 z"
     id="path8"
     inkscape:connector-curvature="0"
     style="opacity:0.5;fill:#1a1a1a" /><linearGradient
     id="XMLID_10_"
     gradientUnits="userSpaceOnUse"
     x1="64.5"
     y1="54.187"
     x2="64.5"
     y2="83.489304"
     gradientTransform="matrix(0.1360755,0,0,0.1360755,-0.89801999,-0.6244346)"><stop
       offset="0"
       style="stop-color:#C9C7C7"
       id="stop11" /><stop
       offset="0.5715"
       style="stop-color:#EBEBEB"
       id="stop13" /><stop
       offset="0.9719"
       style="stop-color:#FFFFFF"
       id="stop15" /></linearGradient><path
     d="m 13.662059,14.752095 c 0,0.22452 -0.183702,0.40822 -0.408226,0.40822 l -10.7499654,0 c -0.2245246,0 -0.4082265,-0.1837 -0.4082265,-0.40822 l 0,-8.3783096 5.0886795,-3.31602 6.4777384,3.31602 0,8.3783096 z"
     id="path17"
     style="fill:url(#XMLID_10_)"
     inkscape:connector-curvature="0" /><linearGradient
     id="XMLID_11_"
     gradientUnits="userSpaceOnUse"
     x1="64.5"
     y1="38.1968"
     x2="64.5"
     y2="116.2671"
     gradientTransform="matrix(0.1360755,0,0,0.1360755,-0.89801999,-0.6244346)"><stop
       offset="0"
       style="stop-color:#ABABAB"
       id="stop20" /><stop
       offset="0.2781"
       style="stop-color:#D9D8D9"
       id="stop22" /><stop
       offset="0.4326"
       style="stop-color:#EDECED"
       id="stop24" /><stop
       offset="0.6872"
       style="stop-color:#E8E8E8"
       id="stop26" /><stop
       offset="0.9862"
       style="stop-color:#DBDBDA"
       id="stop28" /><stop
       offset="1"
       style="stop-color:#DADAD9"
       id="stop30" /></linearGradient><path
     d="m 2.3677921,6.4475454 c 0,0.14492 0,8.3045496 0,8.3045496 0,0.15022 0.1220597,0.27215 0.272151,0.27215 l 10.4778139,0 c 0.150092,0 0.272151,-0.12193 0.272151,-0.27215 0,0 0,-8.1445296 0,-8.2993796 -0.132129,-0.0755 -5.9258164,-3.15587 -6.0648854,-3.23547 -0.134034,0.0872 -4.8383005,3.15273 -4.9572305,3.2303 z"
     id="path32"
     style="fill:url(#XMLID_11_)"
     inkscape:connector-curvature="0" /><path
     d="m 9.5797936,0.73631541 c -0.07525,0 -0.136075,0.061 -0.136075,0.13608 l 0,3.81010999 c 0,0.0751 0.06082,0.13608 0.136075,0.13608 l 2.9936614,0 c 0.07525,0 0.136076,-0.061 0.136076,-0.13608 l 0,-3.81010999 c 0,-0.0751 -0.06083,-0.13608 -0.136076,-0.13608 l -2.9936614,0 z"
     id="path34"
     inkscape:connector-curvature="0"
     style="opacity:0.7;fill:#666666" /><rect
     x="9.5797939"
     y="0.87239367"
     width="2.9936612"
     height="3.8101141"
     id="rect36"
     style="fill:#ffffff" /><linearGradient
     id="XMLID_12_"
     gradientUnits="userSpaceOnUse"
     x1="88.167999"
     y1="33.128399"
     x2="88.167999"
     y2="13.6284"
     gradientTransform="matrix(0.1360755,0,0,0.1360755,-0.89801999,-0.6244346)"><stop
       offset="0"
       style="stop-color:#E8E7E8"
       id="stop39" /><stop
       offset="1"
       style="stop-color:#D7D7D7"
       id="stop41" /></linearGradient><rect
     x="9.7841797"
     y="1.1037169"
     width="2.6307478"
     height="3.5379632"
     id="rect43"
     style="fill:url(#XMLID_12_)" /><path
     d="m 7.9468876,4.3726654 c 0.317464,0 5.9092154,3.34378 6.6868864,3.73255 0.777672,0.38863 1.301018,-0.16289 1.301018,-0.55165 0,-0.38877 0.176762,-0.84816 -0.600773,-1.23693 l -7.3871314,-3.88781 -7.38685859,3.88781 c -0.7776715,0.38877 -0.5874379,0.82094 -0.5874379,1.20971 0,0.38877 0.2179929,1.08412 1.28741029,0.57887 0.7862443,-0.37135 6.3694222,-3.73255 6.6868862,-3.73255 z"
     id="path45"
     inkscape:connector-curvature="0"
     style="fill:#8f2e2e" /><radialGradient
     id="XMLID_13_"
     cx="47.400398"
     cy="30.091299"
     r="78.965797"
     gradientUnits="userSpaceOnUse"
     gradientTransform="matrix(0.1360755,0,0,0.1360755,-0.89801999,-0.6244346)"><stop
       offset="0"
       style="stop-color:#F56363"
       id="stop48" /><stop
       offset="1"
       style="stop-color:#A33A3A"
       id="stop50" /></radialGradient><path
     d="m 7.9468876,3.9826654 c 0.272151,0 5.9092154,3.34379 6.6868864,3.73255 0.777672,0.38877 1.301018,0.15527 1.301018,-0.2335 0,-0.38877 0.176626,-1.1663 -0.600909,-1.55507 0,0 -7.0695314,-3.88782 -7.3869954,-3.88782 -0.317464,0 -7.38685859,3.88782 -7.38685859,3.88782 -0.7776715,0.38877 -0.5874379,1.1663 -0.5874379,1.55507 0,0.38877 0.2179929,0.73875 1.28741029,0.2335 0.7862443,-0.37135 6.4147352,-3.73255 6.6868862,-3.73255 z"
     id="path52"
     style="fill:url(#XMLID_13_)"
     inkscape:connector-curvature="0" /><rect
     x="3.4563956"
     y="9.0369291"
     width="4.2183404"
     height="6.1233978"
     id="rect54"
     style="fill:#7d533f" /><rect
     x="3.7285466"
     y="9.309062"
     width="3.6740386"
     height="5.8512468"
     id="rect56"
     style="fill:#cd6f2f" /><rect
     x="3.8646226"
     y="9.4451475"
     width="3.4018877"
     height="5.5790958"
     id="rect58"
     style="fill:#f69a3b" /><linearGradient
     id="XMLID_14_"
     gradientUnits="userSpaceOnUse"
     x1="86"
     y1="71.125"
     x2="86"
     y2="94.999901"
     gradientTransform="matrix(0.1360755,0,0,0.1360755,-0.89801999,-0.6244346)"><stop
       offset="0"
       style="stop-color:#B3B3B3"
       id="stop61" /><stop
       offset="0.4362"
       style="stop-color:#C5C6C5"
       id="stop63" /><stop
       offset="1"
       style="stop-color:#D9DAD9"
       id="stop65" /></linearGradient><rect
     x="8.8994169"
     y="9.4451475"
     width="3.8101141"
     height="2.8575857"
     id="rect67"
     style="fill:url(#XMLID_14_)" /><linearGradient
     id="XMLID_15_"
     gradientUnits="userSpaceOnUse"
     x1="86"
     y1="73.834"
     x2="86"
     y2="80.834"
     gradientTransform="matrix(0.1360755,0,0,0.1360755,-0.89801999,-0.6244346)"><stop
       offset="0"
       style="stop-color:#5E5E5E"
       id="stop70" /><stop
       offset="0.3296"
       style="stop-color:#6A6A6A"
       id="stop72" /><stop
       offset="1"
       style="stop-color:#7E7E7E"
       id="stop74" /></linearGradient><rect
     x="9.0354919"
     y="9.5812254"
     width="3.5379632"
     height="2.8575857"
     id="rect76"
     style="fill:url(#XMLID_15_)" /><linearGradient
     id="XMLID_16_"
     gradientUnits="userSpaceOnUse"
     x1="95.576202"
     y1="94.089798"
     x2="81.657097"
     y2="81.6036"><stop
       offset="0"
       style="stop-color:#65F5FA"
       id="stop79" /><stop
       offset="0.5013"
       style="stop-color:#64DCFA"
       id="stop81" /><stop
       offset="1"
       style="stop-color:#64C8FA"
       id="stop83" /></linearGradient><rect
     x="9.3076429"
     y="9.8533735"
     width="2.9936612"
     height="2.3132837"
     id="rect85"
     style="fill:url(#linearGradient3452)" /><rect
     x="9.3076429"
     y="9.8533735"
     width="2.9936612"
     height="2.3132837"
     id="rect87"
     style="fill:url(#linearGradient3450)" /><linearGradient
     id="XMLID_18_"
     gradientUnits="userSpaceOnUse"
     x1="79.327103"
     y1="72.0625"
     x2="91.505501"
     y2="90.736198"
     gradientTransform="matrix(0.1360755,0,0,0.1360755,-0.89801999,-0.6244346)"><stop
       offset="0"
       style="stop-color:#FFFFFF"
       id="stop90" /><stop
       offset="0.4789"
       style="stop-color:#AEFAFC"
       id="stop92" /><stop
       offset="0.8295"
       style="stop-color:#79F6FB"
       id="stop94" /><stop
       offset="1"
       style="stop-color:#65F5FA"
       id="stop96" /></linearGradient><rect
     x="9.4437189"
     y="9.989459"
     width="2.6989214"
     height="1.1340532"
     id="rect98"
     style="fill:url(#XMLID_18_)" /><rect
     x="3.8646226"
     y="9.4451475"
     width="3.4018877"
     height="0.1360755"
     id="rect100"
     style="fill:#fcaf43" /><rect
     x="3.8646226"
     y="14.888178"
     width="3.4018877"
     height="0.1360755"
     id="rect102"
     style="fill:#f2a345" /><circle
     cx="7.062397"
     cy="12.234698"
     id="circle104"
     r="0.34018877"
     style="opacity:0.6;fill:#7d4e3d" /><circle
     cx="7.062397"
     cy="12.370769"
     id="circle106"
     r="0.34018877"
     style="opacity:0.3;fill:#7d4e3d" /><ellipse
     cx="7.062397"
     cy="12.506846"
     rx="0.24629666"
     ry="0.34018877"
     id="ellipse108"
     style="opacity:0.2;fill:#7d4e3d" /><ellipse
     cx="7.1577864"
     cy="12.642924"
     rx="0.24629666"
     ry="0.34018877"
     id="ellipse110"
     style="opacity:0.2;fill:#7d4e3d" /><circle
     cx="7.062397"
     cy="12.234698"
     id="circle112"
     r="0.20411326"
     style="fill:#fcaf43" /></svg>