<?xml version="1.0" encoding="UTF-8" standalone="no"?>
<!-- Created with Inkscape (http://www.inkscape.org/) -->

<svg
   xmlns:dc="http://purl.org/dc/elements/1.1/"
   xmlns:cc="http://creativecommons.org/ns#"
   xmlns:rdf="http://www.w3.org/1999/02/22-rdf-syntax-ns#"
   xmlns:svg="http://www.w3.org/2000/svg"
   xmlns="http://www.w3.org/2000/svg"
   xmlns:xlink="http://www.w3.org/1999/xlink"
   xmlns:sodipodi="http://sodipodi.sourceforge.net/DTD/sodipodi-0.dtd"
   xmlns:inkscape="http://www.inkscape.org/namespaces/inkscape"
   version="1.0"
   width="16"
   height="16"
   id="svg2839"
   inkscape:version="0.91 r13725"
   sodipodi:docname="document-save.svg">
  <metadata
     id="metadata92">
    <rdf:RDF>
      <cc:Work
         rdf:about="">
        <dc:format>image/svg+xml</dc:format>
        <dc:type
           rdf:resource="http://purl.org/dc/dcmitype/StillImage" />
        <dc:title></dc:title>
      </cc:Work>
    </rdf:RDF>
  </metadata>
  <sodipodi:namedview
     pagecolor="#ffffff"
     bordercolor="#666666"
     borderopacity="1"
     objecttolerance="10"
     gridtolerance="10"
     guidetolerance="10"
     inkscape:pageopacity="0"
     inkscape:pageshadow="2"
     inkscape:window-width="1428"
     inkscape:window-height="843"
     id="namedview90"
     showgrid="false"
     fit-margin-top="0"
     fit-margin-left="0"
     fit-margin-right="0"
     fit-margin-bottom="0"
     inkscape:zoom="4.9166667"
     inkscape:cx="24"
     inkscape:cy="22.999999"
     inkscape:window-x="0"
     inkscape:window-y="0"
     inkscape:window-maximized="1"
     inkscape:current-layer="svg2839" />
  <defs
     id="defs2841">
    <linearGradient
       id="linearGradient4168">
      <stop
         id="stop4170"
         style="stop-color:#f8cd70;stop-opacity:1"
         offset="0" />
      <stop
         id="stop4172"
         style="stop-color:#cc9110;stop-opacity:1"
         offset="1" />
    </linearGradient>
    <linearGradient
       id="linearGradient4222">
      <stop
         id="stop4224"
         style="stop-color:white;stop-opacity:1"
         offset="0" />
      <stop
         id="stop4226"
         style="stop-color:white;stop-opacity:0"
         offset="1" />
    </linearGradient>
    <linearGradient
       x1="8.5273199"
       y1="33.332287"
       x2="57.411129"
       y2="33.332287"
       id="linearGradient2867"
       xlink:href="#linearGradient4222"
       gradientUnits="userSpaceOnUse"
       gradientTransform="matrix(0,0.26614833,-0.26376926,0,14.963265,-1.2037296)" />
    <linearGradient
       x1="28.670898"
       y1="23.890965"
       x2="1.3099612"
       y2="23.890965"
       id="linearGradient2870"
       xlink:href="#linearGradient4168"
       gradientUnits="userSpaceOnUse"
       gradientTransform="matrix(0,-0.22947646,-0.22848026,0,13.458615,10.590176)" />
    <linearGradient
       id="linearGradient6310-8">
      <stop
         id="stop6312-6"
         style="stop-color:white;stop-opacity:1"
         offset="0" />
      <stop
         id="stop6314-6"
         style="stop-color:white;stop-opacity:0"
         offset="1" />
    </linearGradient>
    <linearGradient
       id="linearGradient3484-3">
      <stop
         id="stop3486-3"
         style="stop-color:#969696;stop-opacity:1"
         offset="0" />
      <stop
         id="stop3488-7"
         style="stop-color:#b4b4b4;stop-opacity:1"
         offset="1" />
    </linearGradient>
    <linearGradient
       id="linearGradient7056-9">
      <stop
         id="stop7064-0"
         style="stop-color:#e6e6e6;stop-opacity:1"
         offset="0" />
      <stop
         id="stop7060-3"
         style="stop-color:#c8c8c8;stop-opacity:1"
         offset="1" />
    </linearGradient>
    <linearGradient
       id="linearGradient4236">
      <stop
         id="stop4238"
         style="stop-color:#eee;stop-opacity:1"
         offset="0" />
      <stop
         id="stop4240"
         style="stop-color:#eee;stop-opacity:0"
         offset="1" />
    </linearGradient>
    <linearGradient
       id="linearGradient7609">
      <stop
         id="stop7611"
         style="stop-color:white;stop-opacity:1"
         offset="0" />
      <stop
         id="stop7677"
         style="stop-color:#e7e7e7;stop-opacity:1"
         offset="0.47025558" />
      <stop
         id="stop7613"
         style="stop-color:#8c8c8c;stop-opacity:1"
         offset="0.67183787" />
      <stop
         id="stop7617"
         style="stop-color:#ddd;stop-opacity:1"
         offset="0.83542866" />
      <stop
         id="stop7615"
         style="stop-color:#a8a8a8;stop-opacity:1"
         offset="1" />
    </linearGradient>
    <linearGradient
       id="linearGradient2215-6">
      <stop
         id="stop2223-8"
         style="stop-color:#7a7a7a;stop-opacity:1"
         offset="0" />
      <stop
         id="stop2219-7"
         style="stop-color:#474747;stop-opacity:1"
         offset="1" />
    </linearGradient>
    <linearGradient
       id="linearGradient5048-6">
      <stop
         id="stop5050-8"
         style="stop-color:black;stop-opacity:0"
         offset="0" />
      <stop
         id="stop5056-9"
         style="stop-color:black;stop-opacity:1"
         offset="0.5" />
      <stop
         id="stop5052-0"
         style="stop-color:black;stop-opacity:0"
         offset="1" />
    </linearGradient>
    <linearGradient
       id="linearGradient5060-0">
      <stop
         id="stop5062-4"
         style="stop-color:black;stop-opacity:1"
         offset="0" />
      <stop
         id="stop5064-7"
         style="stop-color:black;stop-opacity:0"
         offset="1" />
    </linearGradient>
    <linearGradient
       id="linearGradient4035">
      <stop
         id="stop4037"
         style="stop-color:#f5f5f5;stop-opacity:1"
         offset="0" />
      <stop
         id="stop4039"
         style="stop-color:#e7e7e7;stop-opacity:1"
         offset="0.47025558" />
      <stop
         id="stop4041"
         style="stop-color:#8c8c8c;stop-opacity:1"
         offset="0.69348532" />
      <stop
         id="stop4043"
         style="stop-color:#ddd;stop-opacity:1"
         offset="0.83542866" />
      <stop
         id="stop4045"
         style="stop-color:#a8a8a8;stop-opacity:1"
         offset="1" />
    </linearGradient>
    <radialGradient
       cx="113.0654"
       cy="97.587898"
       r="2.5631001"
       fx="113.667"
       fy="98"
       id="radialGradient4241"
       gradientUnits="userSpaceOnUse">
      <stop
         id="stop4243"
         style="stop-color:#eee;stop-opacity:1"
         offset="0" />
      <stop
         id="stop4245"
         style="stop-color:#cecece;stop-opacity:1"
         offset="0.16" />
      <stop
         id="stop4247"
         style="stop-color:#888;stop-opacity:1"
         offset="0.4675" />
      <stop
         id="stop4249"
         style="stop-color:#555;stop-opacity:1"
         offset="1" />
    </radialGradient>
    <radialGradient
       cx="24"
       cy="42"
       r="21"
       fx="24"
       fy="42"
       id="radialGradient3256"
       xlink:href="#linearGradient6310-8"
       gradientUnits="userSpaceOnUse"
       gradientTransform="matrix(0.33333332,0,0,0.1190476,3.5874437e-7,9.1666694)" />
    <radialGradient
       cx="113.0654"
       cy="97.587898"
       r="2.5631001"
       fx="113.667"
       fy="98"
       id="radialGradient3259"
       xlink:href="#radialGradient4241"
       gradientUnits="userSpaceOnUse"
       gradientTransform="matrix(0.10982957,0,0,0.11658214,2.0183078,1.1646104)" />
    <radialGradient
       cx="127.31733"
       cy="143.82751"
       r="78.728165"
       fx="127.31733"
       fy="143.82751"
       id="radialGradient3263"
       xlink:href="#linearGradient4035"
       gradientUnits="userSpaceOnUse"
       gradientTransform="matrix(0.06351407,-0.00835195,0.0020645,0.03357819,-2.4790581,2.4762304)" />
    <linearGradient
       x1="12.277412"
       y1="37.205811"
       x2="12.221823"
       y2="33.758667"
       id="linearGradient3266"
       xlink:href="#linearGradient4236"
       gradientUnits="userSpaceOnUse"
       gradientTransform="matrix(0.34042553,0,0,0.29962546,-0.00839279,3.9927554)" />
    <linearGradient
       x1="7.0625"
       y1="35.28125"
       x2="24.6875"
       y2="35.28125"
       id="linearGradient3269"
       xlink:href="#linearGradient5060-0"
       gradientUnits="userSpaceOnUse"
       gradientTransform="matrix(0.34042553,0,0,0.29962546,0.26241332,3.5955064)" />
    <radialGradient
       cx="113.0654"
       cy="97.587898"
       r="2.5631001"
       fx="113.667"
       fy="98"
       id="radialGradient3272"
       xlink:href="#radialGradient4241"
       gradientUnits="userSpaceOnUse"
       gradientTransform="matrix(0.07444403,0.01146434,-0.00766857,0.04979613,4.9304803,-1.5439456)" />
    <radialGradient
       cx="113.0654"
       cy="97.587898"
       r="2.5631001"
       fx="113.667"
       fy="98"
       id="radialGradient3276"
       xlink:href="#radialGradient4241"
       gradientUnits="userSpaceOnUse"
       gradientTransform="matrix(0.0742759,-0.01250743,0.00836631,0.04968367,-6.0486393,1.1774284)" />
    <radialGradient
       cx="113.0654"
       cy="97.587898"
       r="2.5631001"
       fx="113.667"
       fy="98"
       id="radialGradient3280"
       xlink:href="#radialGradient4241"
       gradientUnits="userSpaceOnUse"
       gradientTransform="matrix(-0.10982957,0,0,0.11658214,13.98768,1.1646104)" />
    <radialGradient
       cx="142.62215"
       cy="191.85428"
       r="78.728165"
       fx="142.62215"
       fy="191.85428"
       id="radialGradient3284"
       xlink:href="#linearGradient7609"
       gradientUnits="userSpaceOnUse"
       gradientTransform="matrix(0.0616508,0,0,-0.04358102,-1.0370574,16.34948)" />
    <radialGradient
       cx="141.74666"
       cy="206.42612"
       r="78.728165"
       fx="141.74666"
       fy="206.42612"
       id="radialGradient3287"
       xlink:href="#linearGradient4035"
       gradientUnits="userSpaceOnUse"
       gradientTransform="matrix(0.11720293,-0.0016748,8.6742333e-4,0.09636425,-9.0081133,-7.4058446)" />
    <radialGradient
       cx="11.734284"
       cy="8.4900017"
       r="23.047892"
       fx="11.734284"
       fy="8.4900017"
       id="radialGradient3291"
       xlink:href="#linearGradient7056-9"
       gradientUnits="userSpaceOnUse"
       gradientTransform="matrix(0.45890256,0.23239808,-0.15603615,0.30811526,-0.0163855,0.02045841)" />
    <linearGradient
       x1="17.813944"
       y1="29.796696"
       x2="18.072828"
       y2="10.000001"
       id="linearGradient3293"
       xlink:href="#linearGradient3484-3"
       gradientUnits="userSpaceOnUse"
       gradientTransform="matrix(0.33333333,0,0,0.33333333,0,0.66661841)" />
    <linearGradient
       x1="29.9375"
       y1="41"
       x2="30"
       y2="49.999996"
       id="linearGradient3297"
       xlink:href="#linearGradient2215-6"
       gradientUnits="userSpaceOnUse"
       gradientTransform="matrix(0.33391673,0,0,0.25321343,-1.6836325,2.6454594)" />
    <radialGradient
       cx="605.71429"
       cy="486.64789"
       r="117.14286"
       fx="605.71429"
       fy="486.64789"
       id="radialGradient3300"
       xlink:href="#linearGradient5060-0"
       gradientUnits="userSpaceOnUse"
       gradientTransform="matrix(-0.01494916,0,0,0.00686275,10.870377,11.817125)" />
    <radialGradient
       cx="605.71429"
       cy="486.64789"
       r="117.14286"
       fx="605.71429"
       fy="486.64789"
       id="radialGradient3303"
       xlink:href="#linearGradient5060-0"
       gradientUnits="userSpaceOnUse"
       gradientTransform="matrix(0.01494916,0,0,0.00686275,5.1296267,11.817125)" />
    <linearGradient
       x1="302.85715"
       y1="366.64789"
       x2="302.85715"
       y2="609.50507"
       id="linearGradient3306"
       xlink:href="#linearGradient5048-6"
       gradientUnits="userSpaceOnUse"
       gradientTransform="matrix(0.02545218,0,0,0.00686275,-1.1991428,11.817125)" />
  </defs>
  <rect
     width="12.289767"
     height="1.6666666"
     x="1.8551108"
     y="14.333333"
     id="rect2723"
     style="display:inline;overflow:visible;visibility:visible;opacity:0.3;fill:url(#linearGradient3306);fill-opacity:1;fill-rule:nonzero;stroke:none;stroke-width:0.5;marker:none" />
  <path
     d="m 14.13889,14.333392 c 0,0 0,1.666575 0,1.666575 C 14.908733,16.003105 16,15.626572 16,15.166573 16,14.706574 15.140913,14.333392 14.13889,14.333392 Z"
     id="path2725"
     style="display:inline;overflow:visible;visibility:visible;opacity:0.3;fill:url(#radialGradient3303);fill-opacity:1;fill-rule:nonzero;stroke:none;stroke-width:0.5;marker:none"
     inkscape:connector-curvature="0" />
  <path
     d="m 1.86111,14.333392 c 0,0 0,1.666575 0,1.666575 C 1.0912633,16.003105 0,15.626572 0,15.166573 0,14.706574 0.85908997,14.333392 1.86111,14.333392 Z"
     id="path2727"
     style="display:inline;overflow:visible;visibility:visible;opacity:0.3;fill:url(#radialGradient3300);fill-opacity:1;fill-rule:nonzero;stroke:none;stroke-width:1;marker:none"
     inkscape:connector-curvature="0" />
  <path
     d="m 0.48795123,13.154668 15.02399977,0 -0.3004,2.024 -14.38980653,0 -0.33379324,-2.024 z"
     id="rect6431"
     style="display:inline;fill:url(#linearGradient3297);fill-opacity:1;fill-rule:evenodd;stroke:#353537;stroke-width:0.30933297;stroke-linecap:round;stroke-linejoin:round;stroke-miterlimit:4;stroke-dasharray:none;stroke-dashoffset:0;stroke-opacity:1;enable-background:new"
     inkscape:connector-curvature="0" />
  <rect
     width="15"
     height="0.33333334"
     x="0.5"
     y="12.999951"
     id="rect6381"
     style="display:inline;fill:#d2d2d3;fill-opacity:1;fill-rule:evenodd;stroke:none;enable-background:new" />
  <path
     d="M 15.516667,13.200655 13.246789,4.6092094 c -0.06418,-0.244657 -0.4004,-0.443293 -0.683055,-0.443293 l -9.2057397,0 c -0.4342466,0 -0.6830856,0.06619 -0.774653,0.443293 L 0.48333333,13.19229"
     id="path6345"
     style="display:inline;overflow:visible;visibility:visible;fill:url(#radialGradient3291);fill-opacity:1;fill-rule:nonzero;stroke:url(#linearGradient3293);stroke-width:0.33192781;stroke-linecap:round;stroke-linejoin:round;stroke-miterlimit:4;stroke-dasharray:none;stroke-dashoffset:0;stroke-opacity:1;marker:none;enable-background:accumulate"
     inkscape:connector-curvature="0" />
  <path
     d="m 15.166667,13.166619 -14.33333363,-0.008"
     id="path7046"
     style="display:inline;overflow:visible;visibility:visible;opacity:0.4;fill:none;stroke:#ffffff;stroke-width:0.33333334;stroke-linecap:round;stroke-linejoin:miter;stroke-miterlimit:4;stroke-dasharray:none;stroke-dashoffset:0;stroke-opacity:1;marker:none;enable-background:accumulate"
     inkscape:connector-curvature="0" />
  <path
     d="m 13.657132,9.4579394 c -0.07256,-0.665992 -0.558836,-1.301041 -1.3668,-1.802157 -0.01625,-0.192621 -0.223351,-2.65673 -0.223351,-2.65673 -0.01587,-0.189422 -0.25725,-0.332384 -0.561672,-0.332384 l -1.910423,0 c -0.3066113,0 -0.5436273,0.144841 -0.5513577,0.336901 -0.035057,0.867735 -1.1040083,1.320792 -2.6985413,1.732934 -0.5587067,0.09678 -2.015335,0.551719 -2.3496547,0.751394 -0.9841459,0.524535 -1.5710754,1.223824 -1.6524012,1.970042 -0.07398,0.6786896 0.2816087,1.3578496 1.0012886,1.9123886 1.053353,0.811682 2.793782,1.29634 4.6557456,1.29634 1.8619667,0 3.6023917,-0.484658 4.6558787,-1.29634 0.657301,-0.506383 1.010823,-1.116885 1.010823,-1.7359416 0,-0.05879 -0.0034,-0.117664 -0.0096,-0.176447 l 1.9e-5,0 z M 7.9999653,12.330051 c -3.101166,0 -5.4758276,-1.360108 -5.3040261,-2.9367256 0.074109,-0.679725 0.6181206,-1.405346 1.5190071,-1.883513 0.1687074,-0.127161 1.6923577,-0.621789 2.238946,-0.708696 1.514885,-0.390696 2.9002437,-0.897738 2.9436754,-1.96628 0.0019,-0.05117 0.089186,-0.0917 0.1973183,-0.0917 l 1.910167,0 c 0.11058,0 0.2039,0.04251 0.20828,0.09499 l 0.231981,2.760658 c 0.802938,0.465281 1.28947,1.159769 1.358551,1.794538 0.171927,1.5766176 -2.20273,2.9367256 -5.3038997,2.9367256 l 0,0 z"
     id="path9001"
     style="fill:url(#radialGradient3287);fill-opacity:1"
     inkscape:connector-curvature="0" />
  <path
     d="m 7.999923,10.666668 c -1.1216547,0 -1.981517,-0.422372 -1.999641,-0.9826086 C 6.0001393,9.6780014 6,9.6720474 6,9.6660924 c 0,-0.202725 0.1126993,-0.395528 0.3268543,-0.558774 0.362268,-0.275941 0.9877364,-0.44065 1.6732074,-0.44065 0.6853323,0 1.310797,0.164709 1.673065,0.44065 0.2204803,0.16784 0.3334653,0.367329 0.326576,0.576636 C 9.9812897,10.24419 9.1214347,10.666666 7.999923,10.666666 l 0,1e-6 z m 0,-1.6865596 c -1.0539257,0 -1.5908633,0.41861 -1.5782157,0.800771 0.012223,0.3762076 0.7187777,0.6767976 1.5782157,0.6767976 0.859438,0 1.565985,-0.300696 1.5782123,-0.6767976 C 9.590632,9.3986134 9.0538447,8.9801084 7.999923,8.9801084 l 0,0 z"
     id="path9003"
     style="display:inline;overflow:visible;visibility:visible;fill:url(#radialGradient3284);fill-opacity:1;fill-rule:nonzero;stroke-width:1;stroke-linecap:butt;stroke-linejoin:miter;stroke-miterlimit:4;stroke-dasharray:none;stroke-dashoffset:0;stroke-opacity:1;marker:none;enable-background:accumulate"
     inkscape:connector-curvature="0" />
  <path
     d="m 2.0052743,12.539762 c -0.013839,0.198423 -0.221087,0.360239 -0.4627123,0.360239 -0.2415153,0 -0.4243815,-0.161816 -0.4082366,-0.360239 0.016035,-0.197373 0.2231739,-0.356741 0.4623827,-0.356741 0.2393188,9.3e-5 0.422185,0.159368 0.4085662,0.356741 z"
     id="path9007"
     style="fill:#e1e1e1;fill-opacity:1"
     inkscape:connector-curvature="0" />
  <path
     d="m 1.8489865,12.400213 c 0.022076,0.02518 0.047337,0.06552 0.047337,0.119147 0,0.0038 -2.2e-4,0.0077 -4.4e-4,0.01178 -0.00956,0.136751 -0.1713342,0.252284 -0.353212,0.252284 -0.1035693,0 -0.1982423,-0.03789 -0.2531572,-0.101543 -0.023613,-0.02716 -0.050522,-0.07216 -0.045689,-0.132088 0.011093,-0.135585 0.1726519,-0.250185 0.3529924,-0.250185 0.1028005,9.3e-5 0.1971439,0.03766 0.2521684,0.10061 l 9e-7,0 z"
     id="path9009"
     style="fill:url(#radialGradient3280);fill-opacity:1"
     inkscape:connector-curvature="0" />
  <path
     d="m 2.8711784,4.6606024 c 0.023598,0.08299 0.1753693,0.128345 0.3387765,0.100829 0.1633328,-0.0275 0.2753898,-0.11729 0.2502318,-0.200013 -0.02501,-0.08229 -0.1765299,-0.126617 -0.3383027,-0.09938 -0.1618406,0.02729 -0.2740799,0.115996 -0.2507056,0.198559 z"
     id="path9019"
     style="fill:#f0f0f0;fill-opacity:1"
     inkscape:connector-curvature="0" />
  <path
     d="m 2.9668587,4.5833334 c -0.013122,0.01325 -0.027311,0.03331 -0.023463,0.05617 2.762e-4,0.0016 7e-4,0.0033 0.00114,0.005 0.016276,0.05719 0.1339752,0.088 0.2569761,0.06729 0.070042,-0.01179 0.1313488,-0.03872 0.1639188,-0.0721 0.01402,-0.01427 0.028987,-0.03651 0.02142,-0.06149 -0.017233,-0.05652 -0.1347155,-0.08696 -0.2566768,-0.06642 -0.069515,0.01175 -0.1306228,0.0385 -0.1633171,0.07159 l -6e-7,1e-6 z"
     id="path9021"
     style="fill:url(#radialGradient3276);fill-opacity:1"
     inkscape:connector-curvature="0" />
  <path
     d="m 12.304086,4.5655224 c -0.0037,0.0862 0.12616,0.176948 0.289937,0.202169 0.163702,0.02521 0.298295,-0.02482 0.300404,-0.111257 0.0021,-0.08598 -0.127804,-0.175671 -0.289944,-0.200641 -0.162219,-0.02494 -0.296645,0.024 -0.300397,0.109729 z"
     id="path9025"
     style="fill:#e1e1e1;fill-opacity:1"
     inkscape:connector-curvature="0" />
  <path
     d="m 12.419199,4.5222304 c -0.01662,0.0084 -0.0364,0.02304 -0.03992,0.04595 -2.53e-4,0.0016 -3.66e-4,0.0033 -4.66e-4,0.0051 -0.0025,0.05941 0.09954,0.125643 0.222817,0.144628 0.0702,0.01081 0.136864,0.0045 0.178273,-0.01695 0.01779,-0.0091 0.03899,-0.02555 0.03966,-0.05165 0.0014,-0.05907 -0.100569,-0.124884 -0.222806,-0.143708 -0.06969,-0.01069 -0.136104,-0.0045 -0.177542,0.01665 l 0,0 z"
     id="path9027"
     style="fill:url(#radialGradient3272);fill-opacity:1"
     inkscape:connector-curvature="0" />
  <path
     d="m 2.5000001,13.333334 6.1666696,0 0,1.666667 -6,0 -0.1666696,-1.666667 z"
     id="rect8993"
     style="display:inline;overflow:visible;visibility:visible;fill:url(#linearGradient3269);fill-opacity:1;fill-rule:evenodd;stroke:none;stroke-width:2.40899992;marker:none"
     inkscape:connector-curvature="0" />
  <path
     d="m 2.6666692,15 c 0,0 -0.1333358,-1.201943 -0.1333358,-1.201943 C 3.1581938,14.750634 5.4910063,15 7.0709237,15 c 0,0 -4.4042545,0 -4.4042545,0 z"
     id="path8995"
     style="opacity:0.81142853;fill:url(#linearGradient3266);fill-opacity:1;fill-rule:evenodd;stroke:none"
     inkscape:connector-curvature="0" />
  <path
     d="M 3.6355263,4.6666684 3.6011017,4.7936714 3.087185,6.6839674 3,7.0000014 l 0.2546658,-0.06793 4.3315912,-1.181435 0.013757,-0.0059 0.011473,-0.0059 C 7.8408653,5.6207104 7.9634303,5.3820114 7.9923363,5.1628784 8.006803,5.0533114 8.0024663,4.9460204 7.964823,4.8468454 7.9292757,4.7532204 7.836731,4.6699194 7.7399843,4.6725834 l 0,-0.0059 -0.01607,0 -3.9851536,0 -0.1032434,0 1.1e-5,1e-6 z m 0.146612,0.116792 3.9921814,0 c 0.00187,0.01596 0.00635,0.02481 0.00223,0.055 -0.012523,0.09501 -0.066398,0.434899 -0.2017473,0.509047 l -4.198686,1.145828 0.405864,-1.709875 1.303e-4,0 z"
     id="path9039"
     style="display:inline;overflow:visible;visibility:visible;fill:url(#radialGradient3263);fill-opacity:1;fill-rule:nonzero;stroke:none;stroke-width:1;marker:none;enable-background:accumulate"
     inkscape:connector-curvature="0" />
  <path
     d="m 14.000714,12.539762 c 0.01384,0.198423 0.221087,0.360239 0.462712,0.360239 0.241516,0 0.424382,-0.161816 0.408237,-0.360239 -0.01604,-0.197373 -0.223174,-0.356741 -0.462383,-0.356741 -0.239319,9.3e-5 -0.422185,0.159368 -0.408566,0.356741 z"
     id="path9091"
     style="fill:#e1e1e1;fill-opacity:1"
     inkscape:connector-curvature="0" />
  <path
     d="m 14.157002,12.400213 c -0.02208,0.02518 -0.04734,0.06552 -0.04734,0.119147 0,0.0038 2.2e-4,0.0077 4.33e-4,0.01178 0.0096,0.136751 0.171334,0.252284 0.353212,0.252284 0.10357,0 0.198243,-0.03789 0.253157,-0.101543 0.02361,-0.02716 0.05052,-0.07216 0.04569,-0.132088 -0.01109,-0.135585 -0.172652,-0.250185 -0.352993,-0.250185 -0.1028,9.3e-5 -0.197144,0.03766 -0.252168,0.10061 l -10e-7,0 z"
     id="path9093"
     style="fill:url(#radialGradient3259);fill-opacity:1"
     inkscape:connector-curvature="0" />
  <rect
     width="14"
     height="1.6666666"
     x="1"
     y="13.333333"
     id="rect6300-3"
     style="opacity:0.3;fill:url(#radialGradient3256);fill-opacity:1;stroke:none" />
  <path
     d="M 12.503257,5.1666684 7.9886863,10.169925 3.4967427,5.1666684 l 2.0032573,0 0,-4.33659099 5,0 0,4.33659099 2.003257,0 z"
     id="path4348"
     style="display:inline;overflow:visible;visibility:visible;fill:url(#linearGradient2870);fill-opacity:1;fill-rule:nonzero;stroke:#bf8407;stroke-width:0.32681894;stroke-linecap:round;stroke-linejoin:round;stroke-miterlimit:4;stroke-dasharray:none;stroke-dashoffset:0;stroke-opacity:1;marker:none"
     inkscape:connector-curvature="0" />
  <path
     d="M 11.735114,5.5000014 8,9.6666684 4.2109753,5.5000014 l 1.622358,0 0,-4.333333 4.3333337,0 0,4.333333 1.568447,0 z"
     id="path4360"
     style="display:inline;overflow:visible;visibility:visible;opacity:0.35400008;fill:none;stroke:url(#linearGradient2867);stroke-width:0.32681894;stroke-linecap:butt;stroke-linejoin:miter;stroke-miterlimit:4;stroke-dasharray:none;stroke-dashoffset:0;stroke-opacity:1;marker:none"
     inkscape:connector-curvature="0" />
</svg>
