<?xml version="1.0" encoding="UTF-8" standalone="no"?>
<!-- Created with Inkscape (http://www.inkscape.org/) -->

<svg
   xmlns:dc="http://purl.org/dc/elements/1.1/"
   xmlns:cc="http://creativecommons.org/ns#"
   xmlns:rdf="http://www.w3.org/1999/02/22-rdf-syntax-ns#"
   xmlns:svg="http://www.w3.org/2000/svg"
   xmlns="http://www.w3.org/2000/svg"
   xmlns:xlink="http://www.w3.org/1999/xlink"
   xmlns:sodipodi="http://sodipodi.sourceforge.net/DTD/sodipodi-0.dtd"
   xmlns:inkscape="http://www.inkscape.org/namespaces/inkscape"
   version="1.0"
   width="16"
   height="16"
   id="svg3428"
   inkscape:version="0.91 r13725"
   sodipodi:docname="applications-system.svg">
  <metadata
     id="metadata78">
    <rdf:RDF>
      <cc:Work
         rdf:about="">
        <dc:format>image/svg+xml</dc:format>
        <dc:type
           rdf:resource="http://purl.org/dc/dcmitype/StillImage" />
        <dc:title></dc:title>
      </cc:Work>
    </rdf:RDF>
  </metadata>
  <sodipodi:namedview
     pagecolor="#ffffff"
     bordercolor="#666666"
     borderopacity="1"
     objecttolerance="10"
     gridtolerance="10"
     guidetolerance="10"
     inkscape:pageopacity="0"
     inkscape:pageshadow="2"
     inkscape:window-width="1280"
     inkscape:window-height="970"
     id="namedview76"
     showgrid="false"
     fit-margin-top="0"
     fit-margin-left="0"
     fit-margin-right="0"
     fit-margin-bottom="0"
     inkscape:zoom="13.906433"
     inkscape:cx="15.135255"
     inkscape:cy="10.897927"
     inkscape:window-x="0"
     inkscape:window-y="0"
     inkscape:window-maximized="1"
     inkscape:current-layer="svg3428" />
  <defs
     id="defs3430">
    <linearGradient
       id="linearGradient10691">
      <stop
         id="stop10693"
         style="stop-color:#000000;stop-opacity:1"
         offset="0" />
      <stop
         id="stop10695"
         style="stop-color:#000000;stop-opacity:0"
         offset="1" />
    </linearGradient>
    <linearGradient
       x1="63.9995"
       y1="3.1001"
       x2="63.9995"
       y2="122.8994"
       id="XMLID_4_"
       gradientUnits="userSpaceOnUse">
      <stop
         id="stop11"
         style="stop-color:#f2f2f2;stop-opacity:1"
         offset="0" />
      <stop
         id="stop13"
         style="stop-color:#d8d8d8;stop-opacity:1"
         offset="1" />
    </linearGradient>
    <linearGradient
       id="linearGradient5128">
      <stop
         id="stop5130"
         style="stop-color:#ffffff;stop-opacity:1"
         offset="0" />
      <stop
         id="stop5132"
         style="stop-color:#959595;stop-opacity:1"
         offset="1" />
    </linearGradient>
    <linearGradient
       x1="63.9995"
       y1="21.941401"
       x2="63.9995"
       y2="104.0591"
       id="linearGradient2193"
       gradientUnits="userSpaceOnUse">
      <stop
         id="stop2195"
         style="stop-color:#dddddd;stop-opacity:1"
         offset="0" />
      <stop
         id="stop2197"
         style="stop-color:#e8e9ef;stop-opacity:1"
         offset="1" />
    </linearGradient>
    <linearGradient
       x1="63.9995"
       y1="21.941401"
       x2="63.9995"
       y2="104.0591"
       id="linearGradient2199"
       xlink:href="#linearGradient2193"
       gradientUnits="userSpaceOnUse"
       spreadMethod="pad">
      <stop
         id="stop2201"
         style="stop-color:#fcfcfd;stop-opacity:1"
         offset="0" />
      <stop
         id="stop2203"
         style="stop-color:#cccccc;stop-opacity:1"
         offset="1" />
    </linearGradient>
    <linearGradient
       x1="63.9995"
       y1="21.941401"
       x2="63.9995"
       y2="104.0591"
       id="XMLID_5_"
       xlink:href="#linearGradient2199"
       gradientUnits="userSpaceOnUse"
       spreadMethod="pad">
      <stop
         id="stop24"
         style="stop-color:#dadada;stop-opacity:1"
         offset="0" />
      <stop
         id="stop26"
         style="stop-color:#cccccc;stop-opacity:1"
         offset="1" />
    </linearGradient>
    <linearGradient
       x1="64"
       y1="21.523018"
       x2="64"
       y2="103.06695"
       id="XMLID_6_"
       xlink:href="#XMLID_5_"
       gradientUnits="userSpaceOnUse"
       spreadMethod="pad">
      <stop
         id="stop31"
         style="stop-color:#d9d9d9;stop-opacity:1"
         offset="0" />
      <stop
         id="stop33"
         style="stop-color:#cccccc;stop-opacity:1"
         offset="1" />
    </linearGradient>
    <linearGradient
       id="linearGradient2490">
      <stop
         id="stop2492"
         style="stop-color:#791235;stop-opacity:1"
         offset="0" />
      <stop
         id="stop2494"
         style="stop-color:#dd3b27;stop-opacity:1"
         offset="1" />
    </linearGradient>
    <linearGradient
       id="linearGradient7421-5">
      <stop
         id="stop7423-0"
         style="stop-color:#ffffff;stop-opacity:1"
         offset="0" />
      <stop
         id="stop7425-2"
         style="stop-color:#ffffff;stop-opacity:0"
         offset="1" />
    </linearGradient>
    <linearGradient
       id="linearGradient7381">
      <stop
         id="stop7383"
         style="stop-color:#babdb6;stop-opacity:1"
         offset="0" />
      <stop
         id="stop7385"
         style="stop-color:#ffffff;stop-opacity:1"
         offset="1" />
    </linearGradient>
    <linearGradient
       id="linearGradient7444">
      <stop
         id="stop7446"
         style="stop-color:#888a85;stop-opacity:1"
         offset="0" />
      <stop
         id="stop7448"
         style="stop-color:#555753;stop-opacity:1"
         offset="1" />
    </linearGradient>
    <linearGradient
       id="linearGradient4434">
      <stop
         id="stop4436"
         style="stop-color:#d3d7cf;stop-opacity:1"
         offset="0" />
      <stop
         id="stop4438"
         style="stop-color:#babdb6;stop-opacity:1"
         offset="0.18303643" />
      <stop
         id="stop4440"
         style="stop-color:#ffffff;stop-opacity:1"
         offset="0.31893486" />
      <stop
         id="stop4442"
         style="stop-color:#babdb6;stop-opacity:1"
         offset="0.87643671" />
      <stop
         id="stop4444"
         style="stop-color:#eeeeec;stop-opacity:1"
         offset="1" />
    </linearGradient>
    <linearGradient
       id="linearGradient6221">
      <stop
         id="stop6223"
         style="stop-color:#000000;stop-opacity:1"
         offset="0" />
      <stop
         id="stop6225"
         style="stop-color:#000000;stop-opacity:0"
         offset="1" />
    </linearGradient>
    <linearGradient
       id="linearGradient4956">
      <stop
         id="stop4958"
         style="stop-color:#f8b17e;stop-opacity:1"
         offset="0" />
      <stop
         id="stop4960"
         style="stop-color:#e35d4f;stop-opacity:1"
         offset="0.26238" />
      <stop
         id="stop4962"
         style="stop-color:#c6262e;stop-opacity:1"
         offset="0.66347069" />
      <stop
         id="stop4964"
         style="stop-color:#690b54;stop-opacity:1"
         offset="1" />
    </linearGradient>
    <linearGradient
       x1="-6.3077531"
       y1="44.228992"
       x2="-9.7747231"
       y2="44.140411"
       id="linearGradient3511"
       xlink:href="#linearGradient6221"
       gradientUnits="userSpaceOnUse"
       gradientTransform="matrix(-0.17036624,-0.1700938,-0.28908032,0.28863052,16.613312,-2.903991)" />
    <linearGradient
       x1="97.442131"
       y1="35.152435"
       x2="90.220802"
       y2="35.079365"
       id="linearGradient3514"
       xlink:href="#linearGradient4956"
       gradientUnits="userSpaceOnUse"
       gradientTransform="matrix(-0.28008272,-0.27989295,-0.24497439,0.24480835,41.121054,27.923723)" />
    <linearGradient
       x1="29.278061"
       y1="34.022705"
       x2="36.000526"
       y2="27.272705"
       id="linearGradient3516"
       xlink:href="#linearGradient2490"
       gradientUnits="userSpaceOnUse"
       gradientTransform="matrix(-0.34042554,0,0,0.34042554,16.575452,0.16312504)" />
    <linearGradient
       x1="326.60196"
       y1="75.575363"
       x2="317.16116"
       y2="88.006248"
       id="linearGradient3533"
       xlink:href="#linearGradient7421-5"
       gradientUnits="userSpaceOnUse"
       gradientTransform="matrix(-0.46400621,0,0,0.46355545,154.04495,-22.971672)" />
    <linearGradient
       x1="302.29202"
       y1="58.442768"
       x2="308.64914"
       y2="60.767513"
       id="linearGradient3536"
       xlink:href="#linearGradient7381"
       gradientUnits="userSpaceOnUse"
       gradientTransform="matrix(-0.46400621,0,0,0.46355546,154.04495,-22.971672)" />
    <linearGradient
       x1="304.76227"
       y1="64.295265"
       x2="335.30014"
       y2="81.926315"
       id="linearGradient3539"
       xlink:href="#linearGradient4434"
       gradientUnits="userSpaceOnUse"
       gradientTransform="matrix(-0.46400621,0,0,0.46355545,154.04495,-22.971672)" />
    <linearGradient
       x1="301.32211"
       y1="52.786858"
       x2="305.66785"
       y2="58.611824"
       id="linearGradient3541"
       xlink:href="#linearGradient7444"
       gradientUnits="userSpaceOnUse"
       gradientTransform="matrix(-0.46400621,0,0,0.46355545,154.04495,-22.971672)" />
    <linearGradient
       x1="64"
       y1="21.523018"
       x2="64"
       y2="103.06695"
       id="linearGradient3591"
       xlink:href="#XMLID_6_"
       gradientUnits="userSpaceOnUse"
       gradientTransform="matrix(0.12642383,0,0,0.12621379,-0.02443409,0.04125604)"
       spreadMethod="pad" />
    <linearGradient
       x1="49.273136"
       y1="22.274775"
       x2="49.373875"
       y2="102.04791"
       id="linearGradient3593"
       xlink:href="#XMLID_6_"
       gradientUnits="userSpaceOnUse"
       gradientTransform="matrix(0.12642383,0,0,0.12621379,-0.02443409,0.04125604)" />
    <linearGradient
       x1="63.9995"
       y1="21.941401"
       x2="63.9995"
       y2="104.0591"
       id="linearGradient3596"
       xlink:href="#XMLID_5_"
       gradientUnits="userSpaceOnUse"
       gradientTransform="matrix(0.10954182,0,0,0.10935987,1.056013,1.198788)"
       spreadMethod="pad" />
    <linearGradient
       x1="86.132919"
       y1="105.105"
       x2="84.63858"
       y2="20.895"
       id="linearGradient3598"
       xlink:href="#linearGradient5128"
       gradientUnits="userSpaceOnUse"
       gradientTransform="matrix(0.10954182,0,0,0.10935987,1.056013,1.198788)" />
    <linearGradient
       x1="64"
       y1="6.8743429"
       x2="64"
       y2="117.22547"
       id="linearGradient3601"
       xlink:href="#XMLID_4_"
       gradientUnits="userSpaceOnUse"
       gradientTransform="matrix(0.12765958,0,0,0.12765958,-0.10557779,0.16293804)" />
    <radialGradient
       cx="6.702713"
       cy="73.615715"
       r="7.228416"
       fx="6.702713"
       fy="73.615715"
       id="radialGradient3605"
       xlink:href="#linearGradient10691"
       gradientUnits="userSpaceOnUse"
       gradientTransform="matrix(1.0361001,0,0,0.33012801,1.1199542,-10.185547)" />
  </defs>
  <path
     d="m 15.553997,14.117062 c 0,1.317918 -3.353102,2.386302 -7.4893617,2.386302 -4.1362603,0 -7.48936199,-1.068384 -7.48936199,-2.386302 0,-1.317919 3.35310169,-2.386303 7.48936199,-2.386303 4.1362597,0 7.4893617,1.068384 7.4893617,2.386303 z"
     id="path10689"
     style="display:inline;overflow:visible;visibility:visible;opacity:0.4;fill:url(#radialGradient3605);fill-opacity:1;fill-rule:nonzero;stroke:none;stroke-width:0.80000001;marker:none"
     inkscape:connector-curvature="0" />
  <path
     d="m 14.887353,6.359856 -0.577513,0 c -0.155869,0 -0.336093,-0.129494 -0.385648,-0.276957 -0.0028,-0.0077 -0.358412,-0.867166 -0.358412,-0.867166 -0.07319,-0.146983 -0.0378,-0.365362 0.07236,-0.47545 l 0.408327,-0.407648 c 0.09383,-0.0938 0.145667,-0.218858 0.145667,-0.352185 0,-0.133327 -0.05184,-0.258389 -0.145667,-0.352066 L 12.438713,2.023306 C 12.344883,1.929626 12.21961,1.878 12.086061,1.877881 c -0.133549,0 -0.258819,0.05163 -0.352651,0.145425 L 11.325083,2.430955 C 11.214932,2.540803 10.99607,2.576261 10.856761,2.506785 10.848961,2.503185 9.9880323,2.148251 9.9880323,2.148251 9.8325253,2.095901 9.7028153,1.915976 9.7028153,1.760368 l 0,-0.576674 C 9.7024553,0.90901404 9.4786743,0.68560404 9.2036563,0.68560404 l -2.2735739,0 c -0.2751377,0 -0.4989192,0.22341 -0.4989192,0.49808996 l 0,0.576674 c 0,0.155608 -0.1297096,0.335534 -0.2774175,0.385007 -0.00768,0.0029 -0.8686094,0.357816 -0.8686094,0.357816 -0.1472276,0.07307 -0.3660899,0.03761 -0.4762407,-0.07235 L 4.4005688,2.023306 C 4.3066168,1.929506 4.1813466,1.877881 4.0477977,1.877881 c -0.1335493,0 -0.2588188,0.05175 -0.3526513,0.145425 L 2.0872778,3.628384 c -0.1945041,0.194182 -0.1945041,0.51007 0,0.704251 l 0.4083265,0.407648 c 0.1100311,0.109968 0.1455482,0.328467 0.075954,0.467544 -0.0036,0.0078 -0.3592504,0.867286 -0.3592504,0.867286 -0.052436,0.155249 -0.2325411,0.284623 -0.3884082,0.284623 l -0.4278852,0 c -0.2750175,1.2e-4 -0.64854699,0.22353 -0.64854699,0.49821 l 0,2.269678 c 0,0.27468 0.2237817,0.49809 0.49891909,0.49809 l 0.577633,0 c 0.1558673,0 0.3360925,0.129375 0.3855284,0.276957 0.00288,0.0077 0.3585307,0.867166 0.3585307,0.867166 0.073194,0.146983 0.037677,0.365362 -0.072354,0.47545 l -0.4083268,0.407648 c -0.1945039,0.194181 -0.1945039,0.51007 0,0.704251 l 1.607869,1.605077 c 0.093832,0.09368 0.219102,0.145429 0.3526509,0.145429 0.1336695,0 0.2589393,-0.05175 0.3527714,-0.145429 l 0.4083265,-0.407646 c 0.1101512,-0.109847 0.3290135,-0.145309 0.4683217,-0.07583 0.0078,0.0036 0.8687289,0.358655 0.8687289,0.358655 0.1553876,0.05235 0.2850972,0.232155 0.2850972,0.387763 l 0,0.576554 c 0,0.27468 0.2237815,0.498089 0.4989192,0.498089 l 2.2734536,0 c 0.275018,0 0.498799,-0.223409 0.498799,-0.498089 l 0,-0.576554 c 0,-0.155608 0.12971,-0.335535 0.277538,-0.385008 0.0077,-0.0028 0.8686087,-0.357816 0.8686087,-0.357816 0.147228,-0.07307 0.36621,-0.03773 0.476241,0.07223 l 0.408327,0.407646 c 0.09383,0.09368 0.219102,0.145429 0.352651,0.145429 0.133549,0 0.258819,-0.05175 0.352651,-0.145429 L 14.0461,12.35718 c 0.09383,-0.09368 0.145669,-0.218738 0.145669,-0.352066 0,-0.133327 -0.05184,-0.258388 -0.145669,-0.352065 l -0.408325,-0.407648 c -0.110151,-0.109968 -0.145549,-0.328467 -0.07595,-0.467544 0.0036,-0.0078 0.35925,-0.867286 0.35925,-0.867286 0.05244,-0.155129 0.23254,-0.284623 0.388409,-0.284623 l 0.577513,0 c 0.275137,0 0.498919,-0.22341 0.498919,-0.498091 l 0,-2.269917 C 15.38629,6.58326 15.162494,6.35985 14.887357,6.35985 l 0,0 z m -6.8204835,3.752209 c -1.1705046,0 -2.1228668,-0.95066 -2.1228668,-2.11922 0,-1.16856 0.9523622,-2.11934 2.1228668,-2.11934 1.1706238,0 2.1227465,0.95078 2.1227465,2.11934 0,1.16868 -0.9521227,2.11922 -2.1227465,2.11922 z"
     id="path6"
     style="opacity:0.1;fill:#030303;stroke-width:2.66666675;stroke-miterlimit:4;stroke-dasharray:none"
     inkscape:connector-curvature="0" />
  <path
     d="m 14.885299,6.357101 -0.577515,0 c -0.155867,0 -0.336092,-0.129734 -0.385648,-0.277436 -0.0028,-0.0077 -0.35841,-0.868484 -0.35841,-0.868484 -0.07319,-0.147223 -0.0378,-0.365961 0.07235,-0.476168 l 0.408325,-0.408367 c 0.09383,-0.09392 0.14567,-0.219218 0.14567,-0.352785 0,-0.133447 -0.05184,-0.258748 -0.14567,-0.352664 L 12.436657,2.013484 c -0.09383,-0.09392 -0.219102,-0.145666 -0.352651,-0.145666 -0.13355,0 -0.258819,0.05175 -0.352652,0.145666 L 11.323028,2.421731 C 11.212877,2.531819 10.994015,2.567277 10.854706,2.497681 10.846906,2.494081 9.9859773,2.138549 9.9859773,2.138549 9.8304703,2.086079 9.7007613,1.905915 9.7007613,1.750067 l 0,-0.577632 C 9.7004003,0.89727504 9.4766193,0.67350604 9.2016013,0.67350604 l -2.2735741,0 c -0.2751377,0 -0.4989195,0.223769 -0.4989195,0.49892896 l 0,0.577632 c 0,0.155848 -0.1297093,0.336133 -0.2774168,0.385606 -0.00768,0.0029 -0.8686094,0.358415 -0.8686094,0.358415 -0.1472283,0.07319 -0.3660899,0.03773 -0.4762411,-0.07235 L 4.3985139,2.013484 C 4.3045619,1.919564 4.1792918,1.867818 4.0457425,1.867818 c -0.1335489,0 -0.2588187,0.05187 -0.3526512,0.145666 L 2.0852227,3.621197 c -0.194504,0.19454 -0.194504,0.511028 0,0.705449 L 2.4935494,4.735013 C 2.6035805,4.8451 2.6390975,5.063958 2.5695034,5.203395 2.5659034,5.211195 2.210253,6.072118 2.210253,6.072118 2.157817,6.227607 1.9777119,6.35722 1.8218448,6.35722 l -0.4278851,0 C 1.1189422,6.357101 0.74541271,6.58087 0.74541271,6.85603 l 0,2.27351 c 0,0.27504 0.2237818,0.49881 0.49891929,0.49881 l 0.5776328,0 c 0.1558672,0 0.3360924,0.129614 0.3855284,0.277436 0.00288,0.0077 0.3585306,0.868483 0.3585306,0.868483 0.073194,0.147223 0.037677,0.366081 -0.072354,0.476289 l -0.4083267,0.408367 c -0.194504,0.19442 -0.194504,0.511028 0,0.705448 l 1.6078687,1.607716 c 0.093832,0.09392 0.2191019,0.145663 0.3526512,0.145663 0.1336691,0 0.2589389,-0.05175 0.3527711,-0.145663 L 4.8069603,13.56384 c 0.1101511,-0.110088 0.3290131,-0.145667 0.4683217,-0.07595 0.0078,0.0035 0.8687292,0.359133 0.8687292,0.359133 0.1553872,0.05247 0.2850965,0.232514 0.2850965,0.388482 l 0,0.57751 c 0,0.275161 0.2237818,0.498931 0.4989195,0.498931 l 2.2734541,0 c 0.275018,0 0.4988,-0.22377 0.4988,-0.498931 l 0,-0.57751 c 0,-0.155968 0.129709,-0.336134 0.277537,-0.385728 0.0077,-0.0028 0.8686087,-0.358413 0.8686087,-0.358413 0.147228,-0.07319 0.36621,-0.03762 0.476241,0.07235 l 0.408327,0.408247 c 0.09383,0.09392 0.219102,0.145665 0.352651,0.145665 0.133549,0 0.258819,-0.05175 0.352651,-0.145665 l 1.607749,-1.607714 c 0.09383,-0.0938 0.145669,-0.219098 0.145669,-0.352665 0,-0.133567 -0.05184,-0.258868 -0.145669,-0.352664 l -0.408327,-0.408367 c -0.110149,-0.110088 -0.145548,-0.329066 -0.07595,-0.468263 0.0036,-0.0079 0.35925,-0.868723 0.35925,-0.868723 0.05244,-0.155608 0.232542,-0.285222 0.388411,-0.285222 l 0.577512,0 c 0.275135,0 0.498919,-0.22377 0.498919,-0.49881 l 0,-2.27351 c 3.74e-4,-0.27516 -0.223422,-0.498929 -0.498559,-0.498929 l 0,0 z m -6.8204847,3.922552 c -1.2698563,0 -2.3028518,-1.03128 -2.3028518,-2.298907 0,-1.267747 1.0329955,-2.299026 2.3028518,-2.299026 1.269736,0 2.3027317,1.031279 2.3027317,2.299026 0,1.267627 -1.0329957,2.298907 -2.3027317,2.298907 z"
     id="path8"
     style="fill:url(#linearGradient3601);fill-opacity:1;stroke:#888888;stroke-width:0.34027806;stroke-linecap:round;stroke-linejoin:round;stroke-miterlimit:4;stroke-dasharray:none;stroke-opacity:1"
     inkscape:connector-curvature="0" />
  <path
     d="m 8.0666897,3.538542 c -2.5129989,0 -4.5574878,2.041092 -4.5574878,4.549916 0,2.508824 2.0444889,4.549917 4.5574878,4.549917 2.5129983,0 4.5574873,-2.041093 4.5574873,-4.549917 0,-2.508824 -2.044489,-4.549916 -4.5574873,-4.549916 l 0,0 z m 0,7.896328 c -1.8513665,0 -3.35198,-1.498011 -3.35198,-3.346412 0,-1.8484 1.5006135,-3.346411 3.35198,-3.346411 1.8513666,0 3.3519793,1.49812 3.3519793,3.346411 0,1.848291 -1.5006127,3.346412 -3.3519793,3.346412 z"
     id="path28"
     style="fill:url(#linearGradient3596);stroke:url(#linearGradient3598);stroke-width:0.34027806;stroke-miterlimit:4;stroke-dasharray:none"
     inkscape:connector-curvature="0" />
  <path
     d="m 8.0666897,4.080098 c -2.1645022,0 -3.9191381,1.751721 -3.9191381,3.912627 0,2.160907 1.7546359,3.912628 3.9191381,3.912628 2.1645013,0 3.9191373,-1.751721 3.9191373,-3.912628 0,-2.160906 -1.754636,-3.912627 -3.9191373,-3.912627 z m 0,6.50001 c -1.4314969,0 -2.5916882,-1.15839 -2.5916882,-2.587383 0,-1.429119 1.1601913,-2.587383 2.5916882,-2.587383 1.4313706,0 2.5916873,1.158264 2.5916873,2.587383 0,1.428993 -1.1603167,2.587383 -2.5916873,2.587383 z"
     id="path35"
     style="fill:url(#linearGradient3591);stroke:url(#linearGradient3593);stroke-width:0.34027806;stroke-miterlimit:4;stroke-dasharray:none;stroke-opacity:1"
     inkscape:connector-curvature="0" />
  <path
     d="m 12.437155,0.99291204 c 0.05577,-0.0028 0.111671,0.01979 0.148936,0.06383 0.04969,0.05871 0.04961,0.14581 0.01064,0.212766 L 11.554178,3.13121 c -0.09362,0.167348 -0.0445,0.38625 0.106383,0.606383 0.152314,0.222219 0.409786,0.440448 0.734042,0.617021 0.324322,0.176601 0.643794,0.278079 0.914894,0.287234 0.2695,0.0091 0.480614,-0.06625 0.574468,-0.234042 l 1.053192,-1.882979 c 0.02923,-0.05209 0.0788,-0.07819 0.138298,-0.08511 0.05949,-0.0069 0.119883,0.0091 0.159574,0.05319 0.02144,0.0229 0.03522,0.05464 0.04255,0.08511 0.201898,0.869236 0.106358,1.868608 -0.276595,2.553191 -0.522991,0.934927 -1.614255,1.380199 -2.680852,1.191489 -0.435841,0.146484 -1.176561,0.400952 -1.861787,1.080937 L 9.0455793,5.899293 c 0.617713,-0.612982 0.90639,-1.172296 1.0724257,-1.587234 -0.1440557,-0.573617 -0.07973,-1.181494 0.223404,-1.723404 0.382796,-0.684291 1.180649,-1.290049 2.031915,-1.585106 0.01826,-0.0067 0.04524,-0.0097 0.06383,-0.01064 z"
     id="path6912"
     style="display:inline;fill:url(#linearGradient3539);fill-opacity:1;fill-rule:evenodd;stroke:url(#linearGradient3541);stroke-width:0.34042549;stroke-linecap:round;stroke-linejoin:round;stroke-miterlimit:4;stroke-dasharray:none;stroke-dashoffset:0.3612;stroke-opacity:1;enable-background:new"
     inkscape:connector-curvature="0" />
  <path
     d="m 12.436058,1.162184 c -0.0087,0.0032 -0.0032,0.01446 0,0.01451 l -1.044014,1.868707 c -0.14084,0.251748 -0.03925,0.549059 0.130502,0.796737 0.171445,0.250129 0.437094,0.492481 0.78301,0.680846 0.346659,0.188769 0.710264,0.279427 1.015014,0.289723 0.304082,0.01029 0.589506,-0.07644 0.72501,-0.318695 l 1.044014,-1.883194 c 0.006,-9.19e-4 0.0155,9.19e-4 0.01452,0 -0.0096,-0.0102 -0.0018,0.0074 0,0.01451 0.192525,0.828898 0.09267,1.786937 -0.261004,2.41918 C 14.359328,5.909345 13.349284,6.322414 12.349077,6.145452 11.353566,5.967438 10.502351,5.100983 10.29005,4.276744 10.155994,3.742923 10.2131,3.169246 10.493052,2.668787 10.845767,2.038272 11.621687,1.444509 12.436079,1.162231 l -2.4e-5,-4.6e-5 z"
     id="path7379"
     style="display:inline;fill:url(#linearGradient3536);fill-opacity:1;fill-rule:evenodd;stroke:none;enable-background:new"
     inkscape:connector-curvature="0" />
  <path
     d="M 11.915878,1.684402 11.21375,2.939721 c -0.197926,0.353787 -0.05429,0.740301 0.138298,1.021276 0.194577,0.283878 0.478964,0.53142 0.851064,0.734043 0.373664,0.203474 0.760954,0.318118 1.106383,0.329787 0.345889,0.01169 0.729041,-0.09327 0.914894,-0.425532 l 0.723404,-1.30851 c 0.0309,0.611017 -0.03984,1.225688 -0.276596,1.648936 -0.436384,0.780104 -1.356648,1.162762 -2.276596,1 -0.06735,-0.01329 -0.137352,-0.0014 -0.202127,0.02128 -0.498617,0.167577 -1.121165,0.50965 -1.840426,1.223405 L 10.011623,7.524831 8.9584313,6.47164 9.2882183,6.141852 c 0.648481,-0.64351 1.0037337,-1.211638 1.1914897,-1.680851 0.0283,-0.07337 0.02957,-0.147088 0.01064,-0.223404 -0.121974,-0.48571 -0.07107,-1.017735 0.180851,-1.468085 0.230245,-0.411589 0.715245,-0.787326 1.244681,-1.085106 z"
     id="path4756"
     style="display:inline;fill:none;stroke:url(#linearGradient3533);stroke-width:0.23829783;stroke-linecap:round;stroke-linejoin:miter;stroke-miterlimit:4;stroke-dasharray:none;stroke-dashoffset:0.3612;stroke-opacity:1;enable-background:new"
     inkscape:connector-curvature="0" />
  <path
     d="m 10.40524,5.705678 c 0.04661,0.004 0.08775,0.01331 0.117021,0.04255 l 0.212766,0.223405 c 0.117077,0.116963 0.03175,0.404648 -0.202128,0.638298 L 9.8094953,7.322696 9.1711973,6.67376 9.8839633,5.960994 C 10.05937,5.785758 10.265421,5.693704 10.40524,5.705675 Z"
     id="rect7166"
     style="display:inline;opacity:0.07999998;fill:#000000;fill-opacity:1;fill-rule:evenodd;stroke:none;enable-background:new"
     inkscape:connector-curvature="0" />
  <g
     transform="matrix(1.3630182,0,0,1.3616941,-425.42188,-21.985769)"
     id="g7440"
     style="display:inline;opacity:0.48858445;enable-background:new" />
  <path
     d="M 10.608509,7.265923 3.3674923,14.992097 C 2.8924881,15.466783 2.0792469,15.404635 1.5361664,14.861925 0.99308611,14.319212 0.93089991,13.506524 1.4059046,13.031838 L 9.1373183,5.795729 10.608516,7.265916 Z M 3.0073576,13.39173 c -0.2699799,-0.269795 -0.710815,-0.269795 -0.9807943,0 -0.2699792,0.269797 -0.2699792,0.710335 -3e-7,0.980129 0.2699799,0.269797 0.7108147,0.269797 0.9807946,0 0.2699788,-0.269798 0.2699791,-0.710332 0,-0.980129 z"
     id="path6899"
     style="display:inline;fill:url(#linearGradient3514);fill-opacity:1;stroke:url(#linearGradient3516);stroke-width:0.34030053;stroke-linecap:round;stroke-linejoin:round;stroke-miterlimit:4;stroke-dasharray:none;stroke-dashoffset:0.69999999;stroke-opacity:1;enable-background:new"
     inkscape:connector-curvature="0" />
  <path
     d="M 9.2679783,7.151467 C 9.0792133,6.963005 8.7336813,7.004545 8.4932426,7.244607 L 3.491814,11.783922 c -0.2404375,0.240065 -0.054644,0.812348 0.1341212,1.000807 0.1887666,0.188467 0.7618169,0.374342 1.002255,0.134281 L 9.1747093,7.924984 c 0.240437,-0.240064 0.282036,-0.585053 0.09327,-0.773518 z"
     id="rect6533"
     style="display:inline;opacity:0.23106061;fill:url(#linearGradient3511);fill-opacity:1;stroke:none"
     inkscape:connector-curvature="0" />
</svg>
